<svg width="214" height="297" viewBox="0 0 214 297" fill="none" xmlns="http://www.w3.org/2000/svg">
<path d="M169.424 0H117V296.638H169.424C195.07 296.638 213.551 275.262 213.551 245.599V200.23C213.551 174.493 199.973 155.735 179.607 150.5H179.984V145.701C199.973 140.467 213.551 119.528 213.551 82.8841V51.0391C213.551 21.3754 195.07 0 169.424 0ZM150.189 259.558V166.641H161.504C173.95 166.641 180.361 175.365 180.361 191.07V235.129C180.361 250.833 173.95 259.558 161.504 259.558H150.189ZM150.189 129.561V37.0797H161.504C173.95 37.0797 180.361 45.8044 180.361 61.5087V105.132C180.361 120.836 173.95 129.561 161.504 129.561H150.189Z" fill="#65F9EE"/>
<path d="M52.4241 0H0V296.638H52.4241C78.0703 296.638 96.5506 275.262 96.5506 245.599V200.23C96.5506 174.493 82.9733 155.735 62.6071 150.5H62.9842V145.701C82.9732 140.467 96.5506 119.528 96.5506 82.8841V51.0391C96.5506 21.3754 78.0703 0 52.4241 0ZM33.1892 259.558V166.641H44.5038C56.9498 166.641 63.3614 175.365 63.3614 191.07V235.129C63.3614 250.833 56.9498 259.558 44.5038 259.558H33.1892ZM33.1892 129.561V37.0797H44.5038C56.9498 37.0797 63.3614 45.8044 63.3614 61.5087V105.132C63.3614 120.836 56.9498 129.561 44.5038 129.561H33.1892Z" fill="#ECEDEE"/>
</svg>
