<svg width="252" height="70" viewBox="0 0 252 70" fill="none" xmlns="http://www.w3.org/2000/svg">
<path d="M14.9143 0.507202H0V69.4847H14.9143C22.2105 69.4847 27.468 64.5143 27.468 57.6165V47.067C27.468 41.0822 23.6054 36.7204 17.8113 35.5031H17.9186V34.3873C23.6053 33.1701 27.468 28.3011 27.468 19.7803V12.3754C27.468 5.47764 22.2105 0.507202 14.9143 0.507202ZM9.44212 60.8625V39.2563H12.661C16.2018 39.2563 18.0259 41.2851 18.0259 44.9368V55.182C18.0259 58.8338 16.2018 60.8625 12.661 60.8625H9.44212ZM9.44212 30.6341V9.12939H12.661C16.2018 9.12939 18.0259 11.1581 18.0259 14.8099V24.9536C18.0259 28.6054 16.2018 30.6341 12.661 30.6341H9.44212Z" fill="#ECEDEE"/>
<path d="M46.0069 32.46C53.625 32.46 59.7409 27.6924 59.7409 20.4904V11.9696C59.7409 4.76756 53.625 0 46.0069 0C38.3888 0 32.2729 4.76756 32.2729 11.9696V20.4904C32.2729 27.6924 38.3888 32.46 46.0069 32.46ZM32.2729 58.0222C32.2729 65.2243 38.3888 69.9919 46.0069 69.9919C53.625 69.9919 59.7409 65.2243 59.7409 58.0222V49.5015C59.7409 42.2994 53.625 37.5319 46.0069 37.5319C38.3888 37.5319 32.2729 42.2994 32.2729 49.5015V58.0222ZM40.8567 58.2251V49.2986C40.8567 46.5598 43.0026 45.2411 46.0069 45.2411C49.0112 45.2411 51.1572 46.5598 51.1572 49.2986V58.2251C51.1572 60.9639 49.0112 62.2826 46.0069 62.2826C43.0026 62.2826 40.8567 60.9639 40.8567 58.2251ZM40.8567 20.6932V11.7668C40.8567 9.02794 43.0026 7.70925 46.0069 7.70925C49.0112 7.70925 51.1572 9.02794 51.1572 11.7668V20.6932C51.1572 23.4321 49.0112 24.7507 46.0069 24.7507C43.0026 24.7507 40.8567 23.4321 40.8567 20.6932Z" fill="#ECEDEE"/>
<path d="M64.5458 0.507202V69.4847H73.9879V44.6325L74.5244 43.2124L83.6446 69.4847H93.0868L80.3184 31.5471L93.0868 0.507202H83.6446L73.9879 25.3594V0.507202H64.5458Z" fill="#ECEDEE"/>
<path d="M111.733 0.507202H96.8187V69.4847H111.733C119.029 69.4847 124.287 64.5143 124.287 57.6165V47.067C124.287 41.0822 120.424 36.7204 114.63 35.5031H114.737V34.3873C120.424 33.1701 124.287 28.3011 124.287 19.7803V12.3754C124.287 5.47764 119.029 0.507202 111.733 0.507202ZM106.261 60.8625V39.2563H109.48C113.02 39.2563 114.845 41.2851 114.845 44.9368V55.182C114.845 58.8338 113.02 60.8625 109.48 60.8625H106.261ZM106.261 30.6341V9.12939H109.48C113.02 9.12939 114.845 11.1581 114.845 14.8099V24.9536C114.845 28.6054 113.02 30.6341 109.48 30.6341H106.261Z" fill="#65F9EE"/>
<path d="M129.092 12.984V69.4847H138.534V39.2563H147.117V69.4847H156.56V12.984C156.56 5.78194 150.444 0 142.826 0C135.207 0 129.092 5.78194 129.092 12.984ZM138.534 30.6341V12.984C138.534 10.6509 140.358 8.72363 142.826 8.72363C145.293 8.72363 147.117 10.6509 147.117 12.984V30.6341H138.534Z" fill="#5DE3DA"/>
<path d="M176.279 0.507202H161.364V55.7906H170.807V36.8218H174.026C177.566 36.8218 179.39 38.8506 179.39 47.2699V55.7906H188.832V48.8929C188.832 38.242 184.97 33.6773 179.283 32.5615V31.4456C184.97 30.2284 188.832 25.3594 188.832 16.8386V12.3754C188.832 5.47764 183.575 0.507202 176.279 0.507202ZM161.364 69.4847H188.832V60.8625H161.364V69.4847ZM170.807 28.1996V9.12939H174.026C177.566 9.12939 179.39 11.1581 179.39 14.8099V22.5191C179.39 26.1709 177.566 28.1996 174.026 28.1996H170.807Z" fill="#55CEC6"/>
<path d="M201.792 69.4847H211.234V9.12939H219.389V0.507202H193.637V9.12939H201.792V69.4847Z" fill="#4DB8B2"/>
<path d="M238.724 38.039H224.024V69.4846H232.608V60.9639H236.685C240.226 60.9639 242.05 62.9926 242.05 66.6444V69.4846H251.492V66.9487C251.492 63.0941 248.381 59.4423 243.66 57.9208V56.7035C248.166 55.3848 251.278 52.3417 251.278 48.3856V47.6756C251.278 42.0965 247.522 38.039 238.724 38.039ZM224.024 25.8665C224.024 29.4168 226.814 32.0542 230.569 32.0542H251.492V24.4464H234.217C233.359 24.4464 232.608 23.7363 232.608 22.9248V19.5774H249.346V12.984H232.608V8.2164H251.492V0.608582H224.024V25.8665ZM232.608 53.7618V45.6468H238.617C241.621 45.6468 243.767 47.4727 243.767 49.7043C243.767 51.936 241.621 53.7618 238.617 53.7618H232.608Z" fill="#45A29E"/>
</svg>
